<?xml version="1.0" encoding="UTF-8"?>
<svg width="522px" height="96px" viewBox="0 0 522 96" version="1.1" xmlns="http://www.w3.org/2000/svg" xmlns:xlink="http://www.w3.org/1999/xlink">
    <!-- Generator: Sketch 53.2 (72643) - https://sketchapp.com -->
    <title>SPIRE|ZABIT logo</title>
    <desc>Created with Sketch.</desc>
    <defs>
        <polygon id="path-1" points="0.898 0.127 25.667 0.127 25.667 16.94 0.898 16.94"></polygon>
        <polygon id="path-3" points="0.912 0.197 24.889 0.197 24.889 16.94 0.912 16.94"></polygon>
    </defs>
    <g id="SPIRE|ZABIT-logo" stroke="none" stroke-width="1" fill="none" fill-rule="evenodd">
        <polyline id="Fill-1" fill="#FFFFFF" points="33.523 90.719 31.459 90.719 35.372 73.773 37.436 73.773 33.523 90.719"></polyline>
        <path d="M41.852,79.414 L41.467,81.047 C41.899,80.59 43.268,79.127 45.356,79.127 C46.316,79.127 48.596,79.678 48.596,82.006 C48.596,82.582 48.452,83.352 48.332,83.902 L46.748,90.719 L44.875,90.719 L46.484,83.734 C46.628,83.158 46.652,82.871 46.652,82.439 C46.652,81.238 45.836,80.639 44.707,80.639 C42.115,80.639 41.155,82.463 40.531,85.15 L39.235,90.719 L37.339,90.719 L39.955,79.414 L41.852,79.414" id="Fill-2" fill="#FFFFFF"></path>
        <path d="M58.484,90.719 L56.612,90.719 L60.524,73.773 L62.396,73.773 L58.484,90.719 Z M57.572,75.262 C57.187,75.189 56.804,75.166 56.684,75.166 C55.939,75.166 55.748,75.598 55.508,76.654 L54.859,79.414 L56.875,79.414 L56.563,80.854 L54.523,80.854 L52.243,90.719 L50.419,90.719 L52.699,80.854 L50.899,80.854 L51.235,79.414 L53.011,79.414 L53.731,76.295 C54.308,73.773 55.724,73.559 56.492,73.559 C57.116,73.559 57.764,73.75 57.908,73.822 L57.572,75.262 L57.572,75.262 Z" id="Fill-3" fill="#FFFFFF"></path>
        <path d="M71.3,90.719 L69.499,90.719 L69.908,88.943 C68.947,90.215 67.363,90.935 65.779,90.935 C63.643,90.935 62.659,89.664 62.659,88.271 C62.659,87.672 62.899,86.711 63.019,86.135 L64.555,79.414 L66.451,79.414 L64.891,86.135 C64.675,87.047 64.651,87.359 64.651,87.791 C64.651,88.752 65.323,89.375 66.667,89.375 C67.123,89.375 68.443,89.279 69.403,88.246 C70.315,87.264 70.604,85.99 70.892,84.742 L72.116,79.414 L73.916,79.414 L71.3,90.719" id="Fill-4" fill="#FFFFFF"></path>
        <path d="M83.78,83.879 C83.78,83.783 83.804,83.615 83.804,83.422 C83.804,81.719 82.748,80.59 81.26,80.59 C79.411,80.59 77.875,82.174 77.395,83.879 L83.78,83.879 Z M77.035,85.271 C77.011,85.439 76.987,85.727 76.987,86.062 C76.987,89.158 79.339,89.543 80.18,89.543 C81.452,89.543 82.868,88.752 83.395,87.238 L85.196,87.551 C84.812,88.631 83.276,91.008 79.795,91.008 C76.747,91.008 75.139,88.967 75.139,86.184 C75.139,82.27 77.683,79.127 81.379,79.127 C84.019,79.127 85.652,80.711 85.652,83.758 C85.652,84.215 85.652,84.502 85.508,85.271 L77.035,85.271 L77.035,85.271 Z" id="Fill-5" fill="#FFFFFF"></path>
        <path d="M91.411,79.414 L91.027,81.047 C91.459,80.59 92.827,79.127 94.915,79.127 C95.876,79.127 98.156,79.678 98.156,82.006 C98.156,82.582 98.012,83.352 97.892,83.902 L96.308,90.719 L94.435,90.719 L96.044,83.734 C96.188,83.158 96.211,82.871 96.211,82.439 C96.211,81.238 95.395,80.639 94.267,80.639 C91.675,80.639 90.715,82.463 90.091,85.15 L88.795,90.719 L86.898,90.719 L89.515,79.414 L91.411,79.414" id="Fill-6" fill="#FFFFFF"></path>
        <path d="M109.124,82.967 C108.932,82.199 108.523,80.662 106.435,80.662 C103.147,80.662 102.115,84.527 102.115,86.135 C102.115,87.814 102.955,89.615 105.091,89.615 C106.411,89.615 107.828,88.848 108.427,87.047 L110.396,87.31 C109.651,89.063 108.235,91.008 104.947,91.008 C103.027,91.008 100.171,90.119 100.171,86.254 C100.171,82.223 102.859,79.127 106.459,79.127 C108.62,79.127 110.731,80.254 110.9,82.559 L109.124,82.967" id="Fill-7" fill="#FFFFFF"></path>
        <path d="M116.995,75.934 L115.026,75.934 L115.531,73.773 L117.499,73.773 L116.995,75.934 Z M113.563,90.719 L111.642,90.719 L114.258,79.414 L116.155,79.414 L113.563,90.719 L113.563,90.719 Z" id="Fill-8" fill="#FFFFFF"></path>
        <g id="Group-12" transform="translate(116.000000, 79.000000)">
            <mask id="mask-2" fill="white">
                <use xlink:href="#path-1"></use>
            </mask>
            <g id="Clip-10"></g>
            <path d="M5.411,0.414 L5.026,2.047 C5.458,1.59 6.827,0.127 8.915,0.127 C9.875,0.127 12.155,0.678 12.155,3.006 C12.155,3.582 12.011,4.352 11.891,4.902 L10.307,11.719 L8.435,11.719 L10.043,4.734 C10.187,4.158 10.211,3.871 10.211,3.439 C10.211,2.238 9.395,1.639 8.267,1.639 C5.675,1.639 4.714,3.463 4.09,6.15 L2.794,11.719 L0.898,11.719 L3.514,0.414 L5.411,0.414" id="Fill-9" fill="#FFFFFF" mask="url(#mask-2)"></path>
            <path d="M18.778,10.496 C22.019,10.496 22.738,5.863 22.738,4.543 C22.738,3.367 22.354,1.685 20.314,1.685 C17.122,1.685 16.114,5.31 16.114,7.254 C16.114,9.822 17.626,10.496 18.778,10.496 Z M25.667,0.414 L23.219,11.096 C22.331,14.984 20.915,17 17.482,17 C15.274,17 12.994,15.967 12.994,13.52 C12.994,13.328 13.018,13.135 13.065,12.752 L14.986,12.535 C14.866,12.992 14.842,13.135 14.842,13.398 C14.842,14.336 15.562,15.559 17.554,15.559 C20.194,15.559 20.794,13.424 21.515,10.566 C20.866,11.143 19.979,11.935 18.226,11.935 C15.202,11.935 14.17,9.318 14.17,7.254 C14.17,5.238 15.37,0.197 20.218,0.197 C22.331,0.197 23.146,1.543 23.482,2.07 L23.843,0.414 L25.667,0.414 L25.667,0.414 Z" id="Fill-11" fill="#FFFFFF" mask="url(#mask-2)"></path>
        </g>
        <path d="M154.506,89.52 C157.29,89.52 158.826,86.471 158.826,83.879 C158.826,82.27 158.034,80.758 156.018,80.758 C155.106,80.758 153.402,81.143 152.49,83.254 C152.082,84.166 151.794,85.559 151.794,86.52 C151.794,89.016 153.498,89.52 154.506,89.52 Z M154.53,73.773 L152.85,81.094 C153.762,79.799 155.082,79.197 156.57,79.197 C159.378,79.197 160.723,81.455 160.723,83.926 C160.723,86.062 159.618,90.935 154.554,90.935 C152.85,90.935 151.458,90.31 151.098,88.631 L150.618,90.719 L148.77,90.719 L152.706,73.773 L154.53,73.773 L154.53,73.773 Z" id="Fill-13" fill="#FFFFFF"></path>
        <path d="M171.09,83.879 C171.09,83.783 171.114,83.615 171.114,83.422 C171.114,81.719 170.058,80.59 168.57,80.59 C166.722,80.59 165.186,82.174 164.706,83.879 L171.09,83.879 Z M164.346,85.271 C164.322,85.439 164.298,85.727 164.298,86.062 C164.298,89.158 166.65,89.543 167.49,89.543 C168.762,89.543 170.178,88.752 170.706,87.238 L172.506,87.551 C172.123,88.631 170.586,91.008 167.106,91.008 C164.058,91.008 162.45,88.967 162.45,86.184 C162.45,82.27 164.994,79.127 168.69,79.127 C171.33,79.127 172.962,80.711 172.962,83.758 C172.962,84.215 172.962,84.502 172.818,85.271 L164.346,85.271 L164.346,85.271 Z" id="Fill-14" fill="#FFFFFF"></path>
        <path d="M178.218,73.773 L180.09,73.773 L178.337,81.334 C179.058,80.23 180.282,79.127 182.346,79.127 C184.458,79.127 185.538,80.279 185.538,81.791 C185.538,82.51 185.322,83.398 185.274,83.639 L183.642,90.719 L181.746,90.719 L183.426,83.422 C183.57,82.846 183.594,82.607 183.594,82.295 C183.594,81.215 182.778,80.662 181.746,80.662 C180.258,80.662 178.361,81.43 177.521,84.982 L176.177,90.719 L174.305,90.719 L178.218,73.773" id="Fill-15" fill="#FFFFFF"></path>
        <path d="M194.346,85.246 C192.114,85.512 188.945,85.871 188.945,87.982 C188.945,88.654 189.377,89.543 190.866,89.543 C191.61,89.543 192.714,89.184 193.29,88.727 C194.202,88.008 194.346,86.928 194.442,86.543 L194.754,85.199 L194.346,85.246 Z M196.914,90.623 C196.338,90.768 196.098,90.791 195.786,90.791 C195.21,90.791 194.13,90.551 194.13,89.375 C194.13,89.279 194.13,89.158 194.154,89.063 C193.77,89.783 192.618,90.959 190.218,90.959 C187.577,90.959 186.857,89.279 186.857,88.15 C186.857,86.279 188.201,84.91 190.41,84.479 C191.874,84.191 193.602,84.047 195.09,83.734 C195.186,83.279 195.33,82.703 195.33,82.246 C195.33,81.43 194.826,80.639 193.146,80.639 C190.722,80.639 190.458,82.486 190.386,82.918 L188.25,82.727 C188.777,81.238 189.713,79.197 193.41,79.197 C194.994,79.197 197.274,79.918 197.274,81.91 C197.274,82.463 197.178,82.99 197.058,83.52 L196.026,87.959 C195.978,88.176 195.93,88.414 195.93,88.654 C195.93,89.135 196.242,89.23 196.53,89.23 C196.722,89.23 196.89,89.207 197.274,89.063 L196.914,90.623 L196.914,90.623 Z" id="Fill-16" fill="#FFFFFF"></path>
        <polyline id="Fill-17" fill="#FFFFFF" points="203.153 90.719 201.161 90.719 200.057 79.414 201.833 79.414 202.602 88.752 208.074 79.414 210.138 79.414 203.153 90.719"></polyline>
        <path d="M214.841,75.934 L212.873,75.934 L213.377,73.773 L215.346,73.773 L214.841,75.934 Z M211.409,90.719 L209.489,90.719 L212.105,79.414 L214.001,79.414 L211.409,90.719 L211.409,90.719 Z" id="Fill-18" fill="#FFFFFF"></path>
        <path d="M220.001,89.566 C222.617,89.566 224.369,86.734 224.369,83.926 C224.369,80.975 222.377,80.59 221.609,80.59 C218.657,80.59 217.168,83.615 217.168,86.184 C217.168,88.727 218.681,89.566 220.001,89.566 Z M221.585,79.127 C224.585,79.127 226.29,81.383 226.29,84.166 C226.29,87.455 224.033,91.008 220.001,91.008 C216.953,91.008 215.249,88.822 215.249,86.039 C215.249,82.894 217.265,79.127 221.585,79.127 L221.585,79.127 Z" id="Fill-19" fill="#FFFFFF"></path>
        <path d="M230.128,79.414 L231.977,79.414 L231.521,81.406 C232.289,80.062 233.393,79.197 234.881,79.197 C235.025,79.197 235.313,79.223 235.313,79.223 L234.905,81.021 C234.905,81.021 234.617,80.998 234.401,80.998 C233.777,80.998 232.841,81.119 231.977,82.15 C231.017,83.279 230.657,85.078 230.584,85.414 L229.36,90.719 L227.537,90.719 L230.128,79.414" id="Fill-20" fill="#FFFFFF"></path>
        <path d="M247.457,80.879 L245.44,80.879 L244.024,87.07 C243.88,87.742 243.76,88.246 243.76,88.512 C243.76,89.088 244.072,89.23 244.601,89.23 C244.984,89.23 245.344,89.135 245.896,89.039 L245.561,90.455 C245.249,90.6 244.552,90.791 243.736,90.791 C242.68,90.791 241.864,90.336 241.864,89.184 C241.864,88.775 241.936,88.295 242.128,87.432 L243.664,80.879 L241.84,80.879 L242.176,79.414 L243.976,79.414 L244.816,75.838 L246.617,75.838 L245.776,79.414 L247.769,79.414 L247.457,80.879" id="Fill-21" fill="#FFFFFF"></path>
        <path d="M251.32,73.773 L253.192,73.773 L251.44,81.334 C252.16,80.23 253.384,79.127 255.448,79.127 C257.561,79.127 258.641,80.279 258.641,81.791 C258.641,82.51 258.425,83.398 258.377,83.639 L256.744,90.719 L254.848,90.719 L256.528,83.422 C256.673,82.846 256.696,82.607 256.696,82.295 C256.696,81.215 255.881,80.662 254.848,80.662 C253.36,80.662 251.464,81.43 250.624,84.982 L249.28,90.719 L247.408,90.719 L251.32,73.773" id="Fill-22" fill="#FFFFFF"></path>
        <path d="M262.696,79.414 L264.544,79.414 L264.088,81.406 C264.856,80.062 265.96,79.197 267.448,79.197 C267.593,79.197 267.881,79.223 267.881,79.223 L267.473,81.021 C267.473,81.021 267.185,80.998 266.969,80.998 C266.345,80.998 265.408,81.119 264.544,82.15 C263.584,83.279 263.224,85.078 263.152,85.414 L261.928,90.719 L260.104,90.719 L262.696,79.414" id="Fill-23" fill="#FFFFFF"></path>
        <path d="M272.608,89.566 C275.225,89.566 276.978,86.734 276.978,83.926 C276.978,80.975 274.985,80.59 274.217,80.59 C271.265,80.59 269.776,83.615 269.776,86.184 C269.776,88.727 271.289,89.566 272.608,89.566 Z M274.192,79.127 C277.193,79.127 278.897,81.383 278.897,84.166 C278.897,87.455 276.641,91.008 272.608,91.008 C269.561,91.008 267.856,88.822 267.856,86.039 C267.856,82.894 269.872,79.127 274.192,79.127 L274.192,79.127 Z" id="Fill-24" fill="#FFFFFF"></path>
        <g id="Group-28" transform="translate(280.000000, 79.000000)">
            <mask id="mask-4" fill="white">
                <use xlink:href="#path-3"></use>
            </mask>
            <g id="Clip-26"></g>
            <path d="M9.553,11.719 L7.753,11.719 L8.16,9.943 C7.2,11.215 5.616,11.935 4.032,11.935 C1.896,11.935 0.912,10.664 0.912,9.271 C0.912,8.672 1.152,7.711 1.271,7.135 L2.808,0.414 L4.704,0.414 L3.145,7.135 C2.928,8.047 2.904,8.359 2.904,8.791 C2.904,9.752 3.576,10.375 4.92,10.375 C5.376,10.375 6.696,10.279 7.656,9.246 C8.568,8.264 8.856,6.99 9.145,5.742 L10.369,0.414 L12.169,0.414 L9.553,11.719" id="Fill-25" fill="#FFFFFF" mask="url(#mask-4)"></path>
            <path d="M18,10.496 C21.24,10.496 21.96,5.863 21.96,4.543 C21.96,3.367 21.576,1.685 19.536,1.685 C16.344,1.685 15.336,5.31 15.336,7.254 C15.336,9.822 16.848,10.496 18,10.496 Z M24.889,0.414 L22.44,11.096 C21.552,14.984 20.136,17 16.704,17 C14.495,17 12.216,15.967 12.216,13.52 C12.216,13.328 12.239,13.135 12.287,12.752 L14.208,12.535 C14.088,12.992 14.063,13.135 14.063,13.398 C14.063,14.336 14.783,15.559 16.775,15.559 C19.416,15.559 20.016,13.424 20.736,10.566 C20.088,11.143 19.2,11.935 17.448,11.935 C14.424,11.935 13.392,9.318 13.392,7.254 C13.392,5.238 14.592,0.197 19.44,0.197 C21.552,0.197 22.368,1.543 22.704,2.07 L23.064,0.414 L24.889,0.414 L24.889,0.414 Z" id="Fill-27" fill="#FFFFFF" mask="url(#mask-4)"></path>
        </g>
        <path d="M309.663,73.773 L311.535,73.773 L309.783,81.334 C310.503,80.23 311.728,79.127 313.792,79.127 C315.904,79.127 316.984,80.279 316.984,81.791 C316.984,82.51 316.768,83.398 316.72,83.639 L315.088,90.719 L313.191,90.719 L314.872,83.422 C315.016,82.846 315.04,82.607 315.04,82.295 C315.04,81.215 314.224,80.662 313.191,80.662 C311.703,80.662 309.808,81.43 308.967,84.982 L307.623,90.719 L305.751,90.719 L309.663,73.773" id="Fill-29" fill="#FFFFFF"></path>
        <path d="M334.144,82.967 C333.952,82.199 333.544,80.662 331.456,80.662 C328.168,80.662 327.136,84.527 327.136,86.135 C327.136,87.814 327.976,89.615 330.111,89.615 C331.432,89.615 332.848,88.848 333.448,87.047 L335.416,87.31 C334.672,89.063 333.256,91.008 329.968,91.008 C328.048,91.008 325.191,90.119 325.191,86.254 C325.191,82.223 327.88,79.127 331.479,79.127 C333.64,79.127 335.752,80.254 335.92,82.559 L334.144,82.967" id="Fill-30" fill="#FFFFFF"></path>
        <path d="M341.919,89.566 C344.535,89.566 346.288,86.734 346.288,83.926 C346.288,80.975 344.296,80.59 343.527,80.59 C340.575,80.59 339.087,83.615 339.087,86.184 C339.087,88.727 340.6,89.566 341.919,89.566 Z M343.503,79.127 C346.504,79.127 348.208,81.383 348.208,84.166 C348.208,87.455 345.951,91.008 341.919,91.008 C338.871,91.008 337.167,88.822 337.167,86.039 C337.167,82.894 339.183,79.127 343.503,79.127 L343.503,79.127 Z" id="Fill-31" fill="#FFFFFF"></path>
        <path d="M353.942,79.414 L353.511,81.238 C354.327,80.086 355.335,79.127 357.231,79.127 C358.6,79.127 359.751,79.846 359.919,81.238 C360.447,80.494 361.695,79.127 363.88,79.127 C365.08,79.127 366.736,79.727 366.736,81.838 C366.736,82.535 366.472,83.687 366.399,83.998 L364.863,90.719 L363.016,90.719 L364.527,84.094 C364.647,83.566 364.863,82.727 364.863,82.174 C364.863,81.119 364.071,80.615 363.111,80.615 C361.695,80.615 360.207,81.455 359.583,84.143 L358.071,90.719 L356.223,90.719 L357.543,84.959 C357.735,84.143 358.071,82.943 358.071,82.246 C358.071,81.215 357.52,80.615 356.367,80.615 C355.215,80.615 353.463,81.359 352.694,84.742 L351.326,90.719 L349.479,90.719 L352.095,79.414 L353.942,79.414" id="Fill-32" fill="#FFFFFF"></path>
        <path d="M372.71,79.414 L372.278,81.238 C373.095,80.086 374.103,79.127 375.999,79.127 C377.367,79.127 378.519,79.846 378.687,81.238 C379.215,80.494 380.463,79.127 382.647,79.127 C383.848,79.127 385.504,79.727 385.504,81.838 C385.504,82.535 385.239,83.687 385.167,83.998 L383.631,90.719 L381.783,90.719 L383.295,84.094 C383.415,83.566 383.631,82.727 383.631,82.174 C383.631,81.119 382.839,80.615 381.879,80.615 C380.463,80.615 378.975,81.455 378.351,84.143 L376.839,90.719 L374.99,90.719 L376.311,84.959 C376.503,84.143 376.839,82.943 376.839,82.246 C376.839,81.215 376.287,80.615 375.135,80.615 C373.982,80.615 372.23,81.359 371.462,84.742 L370.094,90.719 L368.246,90.719 L370.862,79.414 L372.71,79.414" id="Fill-33" fill="#FFFFFF"></path>
        <path d="M396.399,90.719 L394.6,90.719 L395.007,88.943 C394.047,90.215 392.463,90.935 390.879,90.935 C388.742,90.935 387.759,89.664 387.759,88.271 C387.759,87.672 387.999,86.711 388.118,86.135 L389.654,79.414 L391.551,79.414 L389.991,86.135 C389.774,87.047 389.751,87.359 389.751,87.791 C389.751,88.752 390.423,89.375 391.767,89.375 C392.223,89.375 393.543,89.279 394.503,88.246 C395.415,87.264 395.703,85.99 395.991,84.742 L397.216,79.414 L399.016,79.414 L396.399,90.719" id="Fill-34" fill="#FFFFFF"></path>
        <path d="M404.246,79.414 L403.862,81.047 C404.295,80.59 405.663,79.127 407.751,79.127 C408.711,79.127 410.991,79.678 410.991,82.006 C410.991,82.582 410.847,83.352 410.727,83.902 L409.143,90.719 L407.271,90.719 L408.879,83.734 C409.022,83.158 409.047,82.871 409.047,82.439 C409.047,81.238 408.23,80.639 407.103,80.639 C404.511,80.639 403.551,82.463 402.927,85.15 L401.63,90.719 L399.734,90.719 L402.351,79.414 L404.246,79.414" id="Fill-35" fill="#FFFFFF"></path>
        <path d="M417.854,75.934 L415.886,75.934 L416.39,73.773 L418.358,73.773 L417.854,75.934 Z M414.422,90.719 L412.502,90.719 L415.118,79.414 L417.014,79.414 L414.422,90.719 L414.422,90.719 Z" id="Fill-36" fill="#FFFFFF"></path>
        <path d="M427.214,82.967 C427.022,82.199 426.614,80.662 424.526,80.662 C421.238,80.662 420.206,84.527 420.206,86.135 C420.206,87.814 421.046,89.615 423.182,89.615 C424.502,89.615 425.918,88.848 426.519,87.047 L428.486,87.31 C427.742,89.063 426.326,91.008 423.038,91.008 C421.118,91.008 418.262,90.119 418.262,86.254 C418.262,82.223 420.95,79.127 424.55,79.127 C426.71,79.127 428.822,80.254 428.99,82.559 L427.214,82.967" id="Fill-37" fill="#FFFFFF"></path>
        <path d="M437.103,85.246 C434.87,85.512 431.702,85.871 431.702,87.982 C431.702,88.654 432.135,89.543 433.622,89.543 C434.366,89.543 435.471,89.184 436.047,88.727 C436.959,88.008 437.103,86.928 437.198,86.543 L437.511,85.199 L437.103,85.246 Z M439.671,90.623 C439.095,90.768 438.854,90.791 438.543,90.791 C437.967,90.791 436.887,90.551 436.887,89.375 C436.887,89.279 436.887,89.158 436.911,89.063 C436.526,89.783 435.375,90.959 432.975,90.959 C430.334,90.959 429.614,89.279 429.614,88.15 C429.614,86.279 430.958,84.91 433.166,84.479 C434.631,84.191 436.358,84.047 437.847,83.734 C437.942,83.279 438.087,82.703 438.087,82.246 C438.087,81.43 437.583,80.639 435.902,80.639 C433.479,80.639 433.215,82.486 433.143,82.918 L431.006,82.727 C431.534,81.238 432.471,79.197 436.167,79.197 C437.751,79.197 440.031,79.918 440.031,81.91 C440.031,82.463 439.935,82.99 439.815,83.52 L438.783,87.959 C438.735,88.176 438.687,88.414 438.687,88.654 C438.687,89.135 438.999,89.23 439.287,89.23 C439.479,89.23 439.646,89.207 440.031,89.063 L439.671,90.623 L439.671,90.623 Z" id="Fill-38" fill="#FFFFFF"></path>
        <path d="M447.902,80.879 L445.886,80.879 L444.47,87.07 C444.326,87.742 444.206,88.246 444.206,88.512 C444.206,89.088 444.519,89.23 445.046,89.23 C445.431,89.23 445.79,89.135 446.342,89.039 L446.006,90.455 C445.694,90.6 444.998,90.791 444.182,90.791 C443.126,90.791 442.31,90.336 442.31,89.184 C442.31,88.775 442.382,88.295 442.574,87.432 L444.11,80.879 L442.286,80.879 L442.622,79.414 L444.422,79.414 L445.262,75.838 L447.063,75.838 L446.223,79.414 L448.215,79.414 L447.902,80.879" id="Fill-39" fill="#FFFFFF"></path>
        <path d="M453.11,75.934 L451.142,75.934 L451.646,73.773 L453.614,73.773 L453.11,75.934 Z M449.678,90.719 L447.758,90.719 L450.374,79.414 L452.27,79.414 L449.678,90.719 L449.678,90.719 Z" id="Fill-40" fill="#FFFFFF"></path>
        <path d="M458.27,89.566 C460.886,89.566 462.639,86.734 462.639,83.926 C462.639,80.975 460.646,80.59 459.878,80.59 C456.926,80.59 455.438,83.615 455.438,86.184 C455.438,88.727 456.95,89.566 458.27,89.566 Z M459.854,79.127 C462.854,79.127 464.559,81.383 464.559,84.166 C464.559,87.455 462.302,91.008 458.27,91.008 C455.222,91.008 453.518,88.822 453.518,86.039 C453.518,82.894 455.533,79.127 459.854,79.127 L459.854,79.127 Z" id="Fill-41" fill="#FFFFFF"></path>
        <path d="M470.294,79.414 L469.91,81.047 C470.343,80.59 471.71,79.127 473.799,79.127 C474.759,79.127 477.039,79.678 477.039,82.006 C477.039,82.582 476.895,83.352 476.774,83.902 L475.19,90.719 L473.318,90.719 L474.927,83.734 C475.07,83.158 475.095,82.871 475.095,82.439 C475.095,81.238 474.278,80.639 473.15,80.639 C470.559,80.639 469.599,82.463 468.975,85.15 L467.678,90.719 L465.782,90.719 L468.398,79.414 L470.294,79.414" id="Fill-42" fill="#FFFFFF"></path>
        <path d="M480.662,86.52 C480.638,86.662 480.518,87.047 480.518,87.479 C480.518,89.063 481.693,89.592 483.182,89.592 C484.886,89.592 486.063,88.822 486.063,87.6 C486.063,86.83 485.582,86.447 484.358,85.967 L482.366,85.199 C480.95,84.647 480.038,83.807 480.038,82.486 C480.038,81.094 481.189,79.127 484.574,79.127 C487.887,79.127 488.559,80.902 488.559,82.102 C488.559,82.246 488.559,82.367 488.534,82.535 L486.71,82.846 C486.734,82.775 486.782,82.51 486.782,82.199 C486.782,81.262 485.895,80.518 484.598,80.518 C482.822,80.518 482.03,81.479 482.03,82.246 C482.03,83.062 482.654,83.326 483.758,83.758 L485.606,84.479 C486.975,85.006 488.078,85.68 488.078,87.264 C488.078,88.295 487.454,91.008 483.278,91.008 C480.038,91.008 478.67,89.615 478.67,87.574 C478.67,87.383 478.67,87.215 478.741,86.83 L480.662,86.52" id="Fill-43" fill="#FFFFFF"></path>
        <path d="M18.481,21.288 C17.185,20.664 13.634,19.128 9.889,19.128 C7.345,19.128 5.28,20.616 5.28,23.785 C5.28,31.178 20.882,30.505 20.882,40.778 C20.882,47.643 15.458,50.235 8.833,50.235 C5.137,50.235 1.44,49.227 0.433,48.987 L0.433,45.099 C1.921,45.963 5.761,47.978 9.601,47.978 C12.625,47.978 15.602,46.73 15.602,42.362 C15.602,34.586 0,35.306 0,25.177 C0,19.896 4.032,16.872 10.801,16.872 C14.113,16.872 17.233,17.496 18.481,17.736 L18.481,21.288" id="Fill-47" fill="#FFFFFF"></path>
        <path d="M54.096,33.098 L56.593,33.098 C60.385,33.098 63.649,31.85 63.649,26.089 C63.649,20.713 61.104,19.656 56.832,19.656 C54.24,19.656 54.096,20.568 54.096,22.537 L54.096,33.098 Z M48.815,23.929 C48.815,19.177 48.72,19.177 44.207,18.456 L44.207,17.4 L59.185,17.4 C65.089,17.4 68.93,20.616 68.93,26.281 C68.93,35.353 61.729,35.353 55.776,35.353 L54.096,35.353 L54.096,49.707 L48.815,49.707 L48.815,23.929 L48.815,23.929 Z" id="Fill-48" fill="#FFFFFF"></path>
        <path d="M97.247,23.736 C97.247,19.704 97.103,19.656 92.447,19.032 L92.447,17.977 L102.527,16.872 L102.527,49.707 L97.247,49.707 L97.247,23.736" id="Fill-49" fill="#FFFFFF"></path>
        <path d="M138.67,32.521 L141.406,32.521 C144.526,32.521 148.895,31.657 148.895,26.281 C148.895,21.097 145.919,19.656 141.886,19.656 C138.67,19.656 138.67,20.52 138.67,23.977 L138.67,32.521 Z M133.39,23.929 C133.39,19.177 133.293,19.177 128.829,18.456 L128.829,17.4 L140.638,17.4 C144.238,17.4 154.175,17.4 154.175,25.993 C154.175,31.466 150.623,33.29 146.831,33.914 L155.663,49.707 L150.143,49.707 L141.646,34.777 L138.67,34.777 L138.67,49.707 L133.39,49.707 L133.39,23.929 L133.39,23.929 Z" id="Fill-50" fill="#FFFFFF"></path>
        <path d="M183.261,23.929 C183.261,19.177 183.116,19.177 178.7,18.456 L178.7,17.4 L201.694,17.4 L201.838,24.505 L200.494,24.505 C200.494,20.664 198.478,19.656 195.31,19.656 L191.565,19.656 C189.165,19.656 188.541,19.849 188.541,22.152 L188.541,31.705 L194.35,31.705 C197.661,31.705 197.998,29.594 198.286,28.009 L199.63,28.009 L199.63,38.09 L198.286,38.09 C198.286,35.498 197.229,33.962 194.35,33.962 L188.541,33.962 L188.541,44.667 C188.541,47.354 189.165,47.451 191.565,47.451 L196.894,47.451 C199.63,47.451 200.926,46.491 201.214,42.746 L202.558,42.746 L202.414,49.707 L183.261,49.707 L183.261,23.929" id="Fill-51" fill="#FFFFFF"></path>
        <path d="M310.457,46.923 L326.538,19.656 L318.426,19.656 C315.545,19.656 312.761,19.656 312.761,24.36 L311.417,24.36 L311.608,17.4 L332.442,17.4 L332.442,19.944 L316.169,47.451 L326.01,47.451 C328.891,47.451 331.675,47.403 331.675,42.746 L333.019,42.746 L332.826,49.707 L310.457,49.707 L310.457,46.923" id="Fill-52" fill="#FFFFFF"></path>
        <path d="M365.031,37.466 L375.64,37.466 L370.167,23.449 L365.031,37.466 Z M367.191,23.545 C367.479,22.728 368.007,21.049 368.007,20.713 C368.007,18.792 366.231,18.744 364.311,18.456 L364.311,17.4 L373.336,17.4 L385.049,49.707 L380.057,49.707 L376.456,39.722 L364.215,39.722 L360.614,49.707 L357.639,49.707 L367.191,23.545 L367.191,23.545 Z" id="Fill-53" fill="#FFFFFF"></path>
        <path d="M417.638,45.482 C417.638,47.451 419.605,47.451 422.246,47.451 C427.526,47.451 429.782,45.099 429.782,40.202 C429.782,35.45 426.23,33.769 422.006,33.769 L417.638,33.769 L417.638,45.482 Z M417.638,31.514 L420.854,31.514 C424.982,31.514 428.15,30.169 428.15,25.417 C428.15,21.097 425.702,19.656 421.334,19.656 C418.453,19.656 417.638,19.801 417.638,22.152 L417.638,31.514 Z M412.357,23.929 C412.357,19.177 412.261,19.177 407.797,18.456 L407.797,17.4 L422.054,17.4 C427.574,17.4 433.431,18.696 433.431,25.177 C433.431,29.881 430.022,31.705 427.67,32.474 L427.67,32.569 C431.078,33.241 435.063,35.018 435.063,41.114 C435.063,49.707 425.318,49.707 421.382,49.707 L412.357,49.707 L412.357,23.929 L412.357,23.929 Z" id="Fill-54" fill="#FFFFFF"></path>
        <path d="M464.244,23.736 C464.244,19.704 464.101,19.656 459.444,19.032 L459.444,17.977 L469.524,16.872 L469.524,49.707 L464.244,49.707 L464.244,23.736" id="Fill-55" fill="#FFFFFF"></path>
        <path d="M506.004,19.656 L502.691,19.656 C498.899,19.656 497.795,20.856 497.507,24.36 L496.163,24.36 L496.355,17.4 L520.934,17.4 L521.125,24.505 L519.781,24.505 C519.781,20.809 518.245,19.656 514.549,19.656 L511.284,19.656 L511.284,49.707 L506.004,49.707 L506.004,19.656" id="Fill-56" fill="#FFFFFF"></path>
        <g id="Group" transform="translate(224.171000, 0.175000)" fill="#CB9B23">
            <path d="M65.203,7.812 C66.792,9.492 67.416,11.059 67.479,13.411 C67.789,24.911 56.06,38.622 38.381,45.926 C20.702,53.232 3.651,47.2 3.651,34.421 C3.651,32.38 4.02,30.314 4.708,28.27 C1.719,33.008 0,38.068 0,43.03 C0,58.181 19.813,63.77 39.509,54.746 C59.202,45.721 69.998,29.39 70.084,17.814 C70.121,13.101 67.789,9.681 65.203,7.812" id="Fill-44"></path>
            <path d="M55.259,3.906 C56.319,5.028 56.733,6.072 56.776,7.641 C56.985,15.313 48.957,24.301 37.159,29.173 C25.366,34.048 14.191,30.186 14.191,21.66 C14.191,20.297 14.437,18.921 14.895,17.557 C12.901,20.717 11.755,24.095 11.755,27.402 C11.755,37.512 24.975,41.242 38.114,35.221 C51.256,29.201 58.456,18.302 58.516,10.58 C58.538,7.434 56.985,5.153 55.259,3.906" id="Fill-45"></path>
            <path d="M45.314,0 C45.844,0.561 46.053,1.088 46.073,1.873 C46.178,5.719 41.852,9.978 35.941,12.42 C30.028,14.865 24.73,13.172 24.73,8.899 C24.73,8.215 24.853,7.525 25.083,6.842 C24.083,8.428 23.509,10.118 23.509,11.776 C23.509,16.845 30.133,18.712 36.72,15.695 C43.307,12.677 46.916,7.216 46.944,3.346 C46.957,1.769 46.178,0.625 45.314,0" id="Fill-46"></path>
        </g>
    </g>
</svg>